<?xml version="1.0" encoding="UTF-8" standalone="no"?>
<!DOCTYPE svg PUBLIC "-//W3C//DTD SVG 1.1//EN" "http://www.w3.org/Graphics/SVG/1.1/DTD/svg11.dtd">
<svg width="100%" height="100%" viewBox="0 0 689 86" version="1.1" xmlns="http://www.w3.org/2000/svg" xmlns:xlink="http://www.w3.org/1999/xlink" xml:space="preserve" xmlns:serif="http://www.serif.com/" style="fill-rule:evenodd;clip-rule:evenodd;stroke-linejoin:round;stroke-miterlimit:2;">
    <g transform="matrix(1,0,0,1,0,-421)">
        <g id="KOTEMASTER-Only" transform="matrix(1.00479,0,0,0.551587,0,188.841)">
            <rect x="0" y="421.131" width="684.738" height="154.984" style="fill:none;"/>
            <g id="KOTEMASTER" transform="matrix(0.995228,0,0,1.81295,-59.034,-321.559)">
                <g>
                    <path d="M73.615,415.662L62.889,490.476L79.514,490.416L90.362,415.627L73.615,415.662Z" style="fill:rgb(255,84,85);"/>
                    <path d="M111.463,415.627L127.975,415.627L103.007,451.3L120.111,490.476L101.641,490.476L86.13,451.098L111.463,415.627Z" style="fill:rgb(255,84,85);"/>
                </g>
                <path d="M173.449,414.503C165.247,414.928 152.906,415.925 144.584,433.818C136.262,451.71 137.007,471.814 140.108,478.508C143.668,486.195 151.433,492.099 161.097,492.099C172.332,492.099 181.043,490.686 190.587,478.213C201.785,463.577 199.644,437.355 199.644,437.355C197.911,414.15 177.332,414.301 173.449,414.503ZM172.647,426.469C171.169,426.469 164.421,425.553 159.388,438.027C155.408,447.89 154.274,457.84 154.274,464.551C154.274,474.675 156.02,476.596 161.198,479.358C166.377,482.12 173.352,479.506 177.262,472.975C178.718,470.543 179.736,468.352 181.438,458.586C182.893,450.233 183.305,447.416 183.568,440.158C183.778,434.348 182.599,431.22 180.159,428.653C177.781,426.15 173.933,426.469 172.647,426.469Z" style="fill:rgb(255,84,85);"/>
                <path d="M220.567,415.627L218.725,428.928L235.424,428.802L226.518,490.406L242.561,490.406L251.677,428.802L267.51,428.802L270.538,415.627L220.567,415.627Z" style="fill:rgb(255,84,85);"/>
                <path d="M288.917,415.627L278.326,490.406L318.382,490.406L320.689,478.579L295.837,478.579L298.459,458.446L318.277,458.446L320.794,447.331L300.032,447.331L302.548,427.933L325.617,427.933L329.497,415.627L288.917,415.627Z" style="fill:rgb(255,84,85);"/>
                <path d="M336.64,490.406L352.327,415.627L371.285,415.627L374.221,469.18L391.25,415.627L411.299,415.627L406.433,490.476L391.418,490.406L397.625,428.243L380.093,482.769L364.994,482.685L362.125,428.243L351.991,490.476L336.64,490.406Z" style="fill:rgb(255,84,85);"/>
                <path d="M420.185,490.476L451.223,415.627L470.202,415.627L479.849,490.406L462.862,490.476L462.128,474.358L442.519,474.358L436.647,490.406L420.185,490.476ZM459.544,426.284L446.902,461.972L461.454,461.834L459.544,426.284Z" style="fill:rgb(255,84,85);"/>
                <path d="M549.809,423.532L541.756,431.659C538.728,429.483 536.995,428.556 534.251,427.274C530.078,425.325 523.806,425.692 519.655,429.843C517.041,432.457 516.468,437.72 520.442,441.008C522.118,442.394 527.245,445.28 530.944,446.573C539.904,449.704 542.971,454.441 544.589,458.271C546.842,463.603 546.418,470.001 543.769,476.026C541.215,481.835 536.401,487.24 530.571,489.746C524.643,492.293 514.626,492.579 508.201,491.312C502.119,490.112 496.45,486.782 492.095,482.215L500.67,473.491C503.5,475.791 505.83,477.877 510.289,479.381C511.797,479.89 519.672,482.55 526.768,474.982C529.393,472.183 529.189,468.335 528.408,465.214C527.627,462.092 523.096,458.953 517.522,456.788C511.948,454.623 507.741,451.705 504.1,447.169C499.805,441.818 500.403,436.689 500.968,434.12C501.534,431.552 505.344,422.669 513.272,417.641C519.446,413.725 529.292,413.293 537.953,415.627C542.539,416.863 546.45,420.173 549.809,423.532Z" style="fill:rgb(255,84,85);"/>
                <g transform="matrix(1,0,0,1,346.666,0)">
                    <path d="M220.567,415.627L218.725,428.928L235.424,428.802L226.518,490.406L242.561,490.406L251.677,428.802L267.51,428.802L270.538,415.627L220.567,415.627Z" style="fill:rgb(255,84,85);"/>
                </g>
                <g transform="matrix(1,0,0,1,347.306,0)">
                    <path d="M288.917,415.627L278.326,490.406L318.382,490.406L320.689,478.579L295.837,478.579L298.459,458.446L318.277,458.446L320.794,447.331L300.032,447.331L302.548,427.933L325.617,427.933L329.497,415.627L288.917,415.627Z" style="fill:rgb(255,84,85);"/>
                </g>
                <path d="M697.651,416.398L697.558,416.397L687.282,490.406L702.405,490.406L707.019,461.295C708.994,461.365 711.129,461.463 713.199,461.435L724.215,490.406L740.526,490.406L728.316,458.806L728.316,458.794C731.441,457.597 733.259,456.162 735.4,454.518C740.111,450.373 742.961,445.646 743.695,440.258C743.913,435.442 743.665,430.937 742.39,427.116C740.217,422.692 737.108,419.515 732.697,418.075C730.876,417.538 729.012,417.129 727.107,416.845L727.105,416.77L726.523,416.762C723.964,416.417 721.33,416.296 718.623,416.397L697.651,416.397L697.651,416.398ZM708.525,450.546L710.911,427.803C721.146,427.25 723.718,428.53 725.228,430.04C728.287,433.099 726.443,441.642 725.451,444.208C724.188,447.477 721.308,450.546 714.789,450.546L708.525,450.546Z" style="fill:rgb(255,84,85);"/>
            </g>
        </g>
    </g>
</svg>
